<svg width="58" height="76" fill="none" xmlns="http://www.w3.org/2000/svg"><path d="M12.64 38.475c.545.437.826 1.139.685 1.825l-.655 3.4a1.74 1.74 0 001.092 1.95l2.121.795 2.121.795c.78.297 1.67-.03 2.106-.764l1.684-2.916a1.915 1.915 0 011.731-.936 19.43 19.43 0 003.01-.093 1.894 1.894 0 011.778.795l1.95 2.87a1.765 1.765 0 002.168.608l2.059-.952 2.058-.95a1.752 1.752 0 00.967-2.044l-.873-3.244a1.87 1.87 0 01.561-1.872 19.725 19.725 0 002.075-2.199 1.89 1.89 0 011.809-.686l3.4.655a1.74 1.74 0 001.95-1.092l.795-2.12.795-2.122c.296-.78-.031-1.669-.764-2.105l-2.932-1.654c-.624-.343-.983-1.029-.952-1.746a19.49 19.49 0 00-.093-3.01 1.894 1.894 0 01.795-1.778l2.87-1.95a1.765 1.765 0 00.608-2.168l-.951-2.058-.952-2.06a1.752 1.752 0 00-2.043-.966l-3.244.873a1.872 1.872 0 01-1.887-.577 17.282 17.282 0 00-2.277-2.136 1.864 1.864 0 01-.702-1.84l.64-3.354a1.74 1.74 0 00-1.092-1.95L32.93.905 30.809.11c-.78-.297-1.669.03-2.106.764l-1.715 2.963a1.877 1.877 0 01-1.716.92 18.039 18.039 0 00-3.041.11c-.702.078-1.388-.219-1.778-.811l-1.918-2.823a1.788 1.788 0 00-2.137-.64l-2.059.952-2.012.967a1.726 1.726 0 00-.951 2.043l.889 3.29a1.847 1.847 0 01-.562 1.872 18.69 18.69 0 00-2.074 2.23c-.437.546-1.138.827-1.825.687l-3.368-.64a1.74 1.74 0 00-1.95 1.092l-.795 2.12-.796 2.122c-.296.78.031 1.669.764 2.105l2.964 1.716c.608.359.951 1.014.92 1.716a18.038 18.038 0 00.109 3.04c.078.703-.218 1.389-.811 1.779L2.034 29.57a1.765 1.765 0 00-.609 2.168l.952 2.059.951 2.058a1.752 1.752 0 002.043.967l3.291-.889a1.87 1.87 0 011.872.562 17.987 17.987 0 002.105 1.98zm7.532-23.815c4.99-2.37 10.964-.25 13.335 4.741 2.37 4.991.25 10.964-4.741 13.335-4.991 2.37-10.964.25-13.335-4.741-2.37-4.991-.25-10.964 4.741-13.335zM56.73 49.627l-1.31-.421a.763.763 0 01-.515-.609 7.929 7.929 0 00-.296-1.2.758.758 0 01.171-.78l.983-1.03a.73.73 0 00.062-.92l-.561-.748-.562-.749a.7.7 0 00-.889-.203l-1.216.64a.762.762 0 01-.811-.063 7.963 7.963 0 00-1.06-.64.812.812 0 01-.438-.67l-.03-1.419a.718.718 0 00-.609-.686l-.92-.14-.92-.141a.719.719 0 00-.78.483l-.421 1.31a.78.78 0 01-.624.53 6.954 6.954 0 00-1.248.313.786.786 0 01-.795-.172l-1.014-.967a.73.73 0 00-.92-.062l-.749.561-.748.562a.7.7 0 00-.203.889l.64 1.247a.77.77 0 01-.063.796 9.308 9.308 0 00-.64 1.076.78.78 0 01-.67.437l-1.404.03a.75.75 0 00-.702.594l-.14.92-.14.92a.719.719 0 00.483.78l1.341.42a.764.764 0 01.515.61c.062.42.172.81.312 1.216a.759.759 0 01-.172.78l-.967 1.013a.73.73 0 00-.062.92l.562.749.561.749a.7.7 0 00.889.202l1.248-.64a.77.77 0 01.795.063 9.3 9.3 0 001.076.64.78.78 0 01.437.67l.031 1.404c.016.343.265.64.608.686l.92.14.92.141a.718.718 0 00.78-.483l.422-1.326a.809.809 0 01.608-.53 7.37 7.37 0 001.154-.297.751.751 0 01.78.172l1.03.982a.73.73 0 00.92.063l.748-.562.749-.561a.7.7 0 00.202-.89l-.64-1.231a.765.765 0 01.063-.811 8.06 8.06 0 00.64-1.06.812.812 0 01.67-.438l1.42-.03a.717.717 0 00.686-.609l.14-.92.14-.92c.079-.343-.14-.671-.467-.78zm-5.443.764a4.107 4.107 0 01-4.601 3.54c-2.246-.296-3.837-2.355-3.54-4.6a4.107 4.107 0 014.6-3.54 4.107 4.107 0 013.54 4.6z" fill="#18DE6E"/><path d="M38.84 59.25l-1.98-.343a1.118 1.118 0 01-.873-.78 10.354 10.354 0 00-.671-1.669 1.103 1.103 0 01.094-1.154l1.2-1.669a1.02 1.02 0 00-.109-1.326l-.951-.951-.951-.951a1.042 1.042 0 00-1.326-.125l-1.638 1.17c-.343.25-.795.265-1.185.078a10.269 10.269 0 00-1.653-.702 1.173 1.173 0 01-.764-.874l-.344-2.043a1.037 1.037 0 00-1.013-.873h-2.714a1.04 1.04 0 00-1.03.858l-.342 1.965a1.111 1.111 0 01-.796.873c-.608.187-1.185.421-1.731.702a1.129 1.129 0 01-1.17-.078l-1.653-1.185a1.021 1.021 0 00-1.326.109l-.951.951-.951.952a1.04 1.04 0 00-.125 1.325l1.17 1.67c.233.342.265.794.077 1.153-.28.53-.514 1.092-.701 1.669a1.122 1.122 0 01-.874.764l-2.012.328c-.483.078-.857.514-.889.998v2.714c0 .514.36.935.858 1.029l2.012.343c.406.078.749.374.873.764.188.577.406 1.139.687 1.685.187.374.156.826-.078 1.154l-1.186 1.653a1.02 1.02 0 00.11 1.326l.951.951.951.951c.36.36.92.406 1.326.125l1.669-1.17a1.138 1.138 0 011.154-.078c.53.281 1.092.515 1.669.702.405.125.686.468.764.874l.328 2.012c.078.499.514.873 1.013.873h2.714a1.04 1.04 0 001.03-.858l.342-1.996c.078-.421.375-.749.78-.873.546-.172 1.076-.39 1.591-.655a1.133 1.133 0 011.154.078l1.669 1.2c.405.297.967.25 1.326-.109l.951-.951.951-.951c.36-.36.406-.92.125-1.326l-1.154-1.638a1.094 1.094 0 01-.062-1.17c.28-.53.514-1.076.701-1.653.14-.39.468-.686.874-.764l2.043-.343c.5-.078.873-.515.873-1.014v-2.713c.047-.5-.327-.936-.826-1.014zm-13.584 8.203a5.97 5.97 0 01-6.02-5.91 5.97 5.97 0 015.911-6.02 5.97 5.97 0 016.02 5.91 5.97 5.97 0 01-5.91 6.02z" fill="#18DE6E"/></svg>