<svg width="76" height="76" fill="none" xmlns="http://www.w3.org/2000/svg"><path d="M23.757 23.428l17.888 17.888c.406-4.404 1.234-20.522-7.248-29.004-2.88-2.881-6.69-4.73-10.64-5.906v17.022zM1.756 7.724c-.209 3.16-.51 12.572 2.465 20.782h18.317L1.756 7.724zm17.548 11.252V5.35c-6.216-1.137-12.044-.931-14.4-.775l14.4 14.4zm7.686 13.983H6.27c.897 1.553 1.96 2.995 3.222 4.258 6.343 6.343 16.955 7.48 23.747 7.48 2.29 0 4.146-.13 5.257-.233L26.99 32.96zm46.64-15.288c1.137-6.216.93-12.044.775-14.399l-14.4 14.399h13.626zm-23.154 3.234L71.256.123c-3.158-.209-12.57-.51-20.78 2.465v18.317zm5.077 1.219l-9.387 9.388c.252 3.474.167 6.542.034 8.64 6.594-.366 15.075-1.994 20.47-7.388 2.88-2.88 4.73-6.69 5.906-10.64H55.553zM45.471 25.91l.552-.552V4.637c-1.554.896-2.996 1.96-4.259 3.222a19.51 19.51 0 00-2.55 3.171c1.903 2.368 3.444 5.207 4.594 8.474.696 1.979 1.252 4.122 1.663 6.405zM12.293 60.512h5.64c.964 0 1.521.928 1.521 1.93 0 .853-.482 1.855-1.521 1.855h-5.64v7.458h10.5c.965 0 1.522 1.002 1.522 2.152 0 1.002-.483 2.078-1.522 2.078H9.583c-1.075 0-2.114-.52-2.114-1.521V50.382c0-1.002 1.039-1.521 2.115-1.521h13.21c1.038 0 1.52 1.076 1.52 2.078 0 1.15-.556 2.152-1.52 2.152H12.291v7.42zm25.157-7.629c-2.486 0-3.896 1.372-3.896 4.267v10.352c0 2.895 1.41 4.268 3.97 4.268 3.377 0 3.674-2.412 3.785-3.97.074-1.15 1.113-1.522 2.375-1.522 1.67 0 2.45.483 2.45 2.375 0 4.49-3.675 7.347-8.87 7.347-4.674 0-8.534-2.3-8.534-8.498V57.15c0-6.197 3.897-8.497 8.572-8.497 5.157 0 8.831 2.746 8.831 7.05 0 1.93-.779 2.375-2.412 2.375-1.373 0-2.375-.408-2.412-1.522-.074-1.15-.334-3.673-3.859-3.673zm13.506 14.619V57.15c0-6.197 3.785-8.497 8.683-8.497s8.72 2.3 8.72 8.497v10.352c0 6.197-3.822 8.498-8.72 8.498-4.898 0-8.683-2.3-8.683-8.498zm12.58-10.352c0-2.932-1.485-4.267-3.897-4.267-2.449 0-3.859 1.335-3.859 4.267v10.352c0 2.932 1.41 4.268 3.86 4.268 2.41 0 3.895-1.336 3.895-4.268V57.15z" fill="#18DE6E"/></svg>