<svg width="76" height="76" fill="none" xmlns="http://www.w3.org/2000/svg"><path d="M75.76 33.781c-.12-1.068-1.365-1.872-2.443-1.872-3.482 0-6.572-2.043-7.868-5.207-1.323-3.239-.469-7.016 2.125-9.395a2.112 2.112 0 00.232-2.867 37.616 37.616 0 00-6.02-6.08 2.116 2.116 0 00-2.888.234c-2.265 2.509-6.334 3.44-9.478 2.129-3.27-1.376-5.335-4.692-5.132-8.25a2.109 2.109 0 00-1.865-2.22 37.921 37.921 0 00-8.55-.023 2.116 2.116 0 00-1.88 2.175c.122 3.524-1.965 6.78-5.204 8.108-3.107 1.269-7.147.343-9.407-2.143a2.118 2.118 0 00-2.868-.24 37.775 37.775 0 00-6.147 6.078 2.114 2.114 0 00.226 2.887 8.421 8.421 0 012.125 9.482C9.407 29.7 6.163 31.712 2.45 31.712c-1.205-.039-2.062.77-2.196 1.867a38.093 38.093 0 00-.016 8.64c.12 1.073 1.403 1.87 2.492 1.87 3.31-.085 6.486 1.963 7.82 5.206 1.327 3.24.473 7.014-2.126 9.397a2.11 2.11 0 00-.23 2.863 37.746 37.746 0 006.01 6.082 2.113 2.113 0 002.893-.23c2.274-2.514 6.342-3.444 9.473-2.13 3.28 1.373 5.343 4.688 5.142 8.247a2.11 2.11 0 001.864 2.22 37.646 37.646 0 008.55.024 2.115 2.115 0 001.88-2.176c-.127-3.522 1.965-6.78 5.2-8.104 3.127-1.277 7.15-.342 9.411 2.14a2.122 2.122 0 002.868.24 37.822 37.822 0 006.147-6.078 2.11 2.11 0 00-.226-2.888c-2.645-2.394-3.503-6.205-2.13-9.478 1.292-3.082 4.415-5.152 7.774-5.152l.47.013c1.09.088 2.093-.752 2.224-1.864a37.89 37.89 0 00.017-8.641zM38 59.907C25.9 59.907 16.093 50.1 16.093 38S25.9 16.093 38 16.093 59.907 25.901 59.907 38c0 4.107-1.132 7.948-3.098 11.233l-9.593-9.593a13.399 13.399 0 001.06-5.245 13.34 13.34 0 00-3.933-9.496 13.341 13.341 0 00-9.496-3.933c-1.197 0-2.389.159-3.541.473a1.521 1.521 0 00-1.052 1.06c-.138.517.017 1.047.421 1.451 0 0 4.736 4.773 6.32 6.357.167.166.166.562.143.705l-.015.104c-.16 1.742-.467 3.833-.721 4.636l-.102.098-.105.108c-.814.26-2.937.572-4.707.73v-.009l-.079.02a1.012 1.012 0 01-.804-.305c-1.649-1.65-6.199-6.167-6.199-6.167-.408-.407-.827-.492-1.106-.492-.65 0-1.233.47-1.416 1.144A13.476 13.476 0 0025.35 43.89a13.344 13.344 0 009.497 3.934 13.4 13.4 0 005.245-1.061l9.696 9.697A21.797 21.797 0 0138 59.907z" fill="#18DE6E"/></svg>