<svg width="65" height="65" fill="none" xmlns="http://www.w3.org/2000/svg"><path d="M55.617 34.699H50.59c.512 1.403.792 2.917.792 4.495v18.998a5.61 5.61 0 01-.322 1.877h8.31a5.636 5.636 0 005.63-5.63V44.082c0-5.174-4.21-9.383-9.383-9.383zm-41.999 4.495c0-1.578.28-3.092.792-4.495H9.383C4.21 34.699 0 38.909 0 44.082V54.44a5.636 5.636 0 005.63 5.63h8.31a5.605 5.605 0 01-.322-1.877V39.194zm24.628-9.384H26.754c-5.174 0-9.383 4.21-9.383 9.384v18.998c0 1.037.84 1.877 1.877 1.877h26.505c1.036 0 1.876-.84 1.876-1.877V39.194c0-5.174-4.209-9.384-9.383-9.384zM32.5 4.93c-6.222 0-11.284 5.063-11.284 11.285 0 4.22 2.33 7.907 5.77 9.842A11.214 11.214 0 0032.5 27.5c2.002 0 3.883-.525 5.515-1.443 3.44-1.935 5.77-5.621 5.77-9.842 0-6.222-5.063-11.284-11.285-11.284zM12.685 15.449c-4.654 0-8.44 3.786-8.44 8.439 0 4.653 3.786 8.44 8.44 8.44a8.39 8.39 0 003.325-.685 8.492 8.492 0 004.122-3.79 8.386 8.386 0 00.992-3.965c0-4.653-3.786-8.44-8.44-8.44zm39.63 0c-4.653 0-8.439 3.786-8.439 8.439 0 1.432.36 2.782.992 3.964a8.49 8.49 0 004.122 3.791 8.389 8.389 0 003.325.684c4.654 0 8.44-3.785 8.44-8.439 0-4.653-3.786-8.44-8.44-8.44z" fill="#fff"/></svg>