<svg width="28" height="24" fill="none" xmlns="http://www.w3.org/2000/svg"><path d="M14.066 17.492a1.054 1.054 0 100-2.109 1.054 1.054 0 000 2.109z" fill="#0F0F10"/><path d="M23.183 20.393l.821-1.422 2.501 1.443a13.956 13.956 0 001.486-5.45h-2.913v-1.642H28c-.1-1.931-.591-3.79-1.434-5.485l-2.562 1.479-.821-1.423 2.566-1.481a14.149 14.149 0 00-4.007-4.036L20.25 4.96l-1.422-.821 1.495-2.59A13.92 13.92 0 0014.821.072v2.992h-1.643V.073a13.92 13.92 0 00-5.501 1.475l1.495 2.59-1.422.822-1.492-2.584a14.16 14.16 0 00-4.006 4.036l2.565 1.48-.821 1.424-2.562-1.48A13.926 13.926 0 000 13.323h2.922v1.643H.01a13.957 13.957 0 001.486 5.45l2.5-1.444.822 1.422-2.493 1.44c.431.646.918 1.26 1.458 1.835l.244.259h19.948l.244-.26a13.937 13.937 0 001.457-1.835l-2.492-1.439zm-9.117-1.258a2.7 2.7 0 01-2.697-2.698c0-1.2.789-2.22 1.876-2.568V8.72h1.643v5.149a2.702 2.702 0 011.875 2.569 2.7 2.7 0 01-2.697 2.697zm7.01-5.066a7.018 7.018 0 00-7.01-7.01 7.018 7.018 0 00-7.01 7.01H5.413c0-4.771 3.882-8.653 8.653-8.653 4.771 0 8.653 3.882 8.653 8.653h-1.643z" fill="#0F0F10"/></svg>