<svg width="28" height="28" fill="none" xmlns="http://www.w3.org/2000/svg"><path d="M23.181 12.25c-2.653.003-4.81 2.177-4.807 4.846 0 1.459.728 3.121 2.16 4.942a18.898 18.898 0 002.077 2.242.875.875 0 001.163-.002 18.914 18.914 0 002.074-2.244c1.094-1.397 2.15-3.18 2.15-4.947-.002-2.665-2.142-4.837-4.817-4.837zm-1.307 4.814a1.312 1.312 0 011.31-1.314c1.168 0 1.753 1.418.93 2.24-.817.82-2.24.248-2.24-.926zM4.234 12.03a.875.875 0 001.162 0 18.92 18.92 0 002.076-2.244c1.43-1.822 2.156-3.485 2.156-4.945C9.628 2.172 7.468 0 4.815 0 2.162 0 .003 2.172.003 4.841c0 1.46.725 3.123 2.155 4.945a18.918 18.918 0 002.076 2.243zm.581-8.53c.724 0 1.313.589 1.313 1.313 0 .723-.59 1.312-1.313 1.312a1.314 1.314 0 01-1.312-1.313c0-.723.589-1.312 1.312-1.312z" fill="#0F0F10"/><path d="M24.508 26.686c0 1.2-1.487 1.773-2.29.876H3.94a3.942 3.942 0 01-3.938-3.937 3.942 3.942 0 013.938-3.938h8.777c1.191 0 2.16-.969 2.16-2.16 0-1.19-.969-2.16-2.16-2.16H5.793a1.307 1.307 0 01-.978.438c-1.164 0-1.752-1.418-.93-2.24a1.312 1.312 0 011.907.052h6.925a3.914 3.914 0 013.91 3.91 3.914 3.914 0 01-3.91 3.91H3.94a2.19 2.19 0 00-2.188 2.188 2.19 2.19 0 002.188 2.187c19.688 0 18.25.026 18.327-.052.82-.821 2.24-.244 2.241.926z" fill="#0F0F10"/></svg>