<svg width="28" height="28" fill="none" xmlns="http://www.w3.org/2000/svg"><path d="M27.272 4.2c.96-.96.96-2.521 0-3.48-.96-.96-2.52-.96-3.48 0L18.34 6.177h-6.96L.008 17.541l8.121 8.12 11.387-11.37v-6.96l1.434-1.45a4.108 4.108 0 005.162-.522l1.16-1.16zM13.46 15.69l-1.16-1.16a.82.82 0 000-1.16.821.821 0 00-1.16 1.16c.96.96.96 2.52 0 3.48-.668.668-1.72.966-2.784.463L7.079 19.75l-1.16-1.16 1.277-1.277c-.43-.913-.29-2.029.462-2.783l1.161 1.16a.821.821 0 001.16 1.16.82.82 0 000-1.16 2.464 2.464 0 010-3.48c.755-.754 1.87-.893 2.783-.463l1.277-1.277 1.16 1.16-1.277 1.277c.431.914.292 2.03-.463 2.784zm8.69-11.01l2.802-2.8a.82.82 0 111.16 1.16l-1.16 1.16a2.464 2.464 0 01-2.802.48z" fill="#0F0F10"/><path d="M21.157 8.795v6.176L10.67 25.441l-.138 1.13L21.937 28l1.9-15.775-2.68-3.43z" fill="#0F0F10"/></svg>