<svg width="28" height="26" fill="none" xmlns="http://www.w3.org/2000/svg"><path d="M25.844 2.849h-1.878v1.665a2.155 2.155 0 11-4.312 0V2.85h-3.498v1.665A2.155 2.155 0 0114 6.67a2.155 2.155 0 01-2.156-2.156V2.85H8.346v1.665a2.155 2.155 0 11-4.312 0V2.85H2.156A2.157 2.157 0 000 5.005V23.42c0 1.192.965 2.156 2.156 2.156h23.688A2.155 2.155 0 0028 23.421V5.005a2.155 2.155 0 00-2.156-2.156zM23.69 9.662v3.125h-4.07V9.662h4.068zm-14.346 4.09h4.175v2.963H9.343v-2.964zm-.963 2.962H4.312V13.75H8.38v2.964zm5.138.964v3.588H9.344v-3.588h4.174zm.965 0h4.173v3.588h-4.173v-3.588zm0-.964V13.75h4.173v2.964h-4.173zm5.137-2.963h4.068v2.964H19.62v-2.964zm-.962-4.09v3.126h-4.175V9.662h4.175zm-5.14 0v3.126H9.344V9.661h4.174zm-5.138 0v3.126H4.312V9.661H8.38zm-4.068 8.017H8.38v3.588H4.312v-3.588zm15.308 3.588v-3.588h4.068v3.588H19.62zM4.958 4.514v-2.86a1.232 1.232 0 012.464 0v2.86a1.232 1.232 0 01-2.464 0zm7.81 0v-2.86a1.232 1.232 0 012.464 0v2.86a1.232 1.232 0 01-2.464 0zm7.81 0v-2.86a1.232 1.232 0 012.464 0v2.86a1.232 1.232 0 01-2.463 0z" fill="#0F0F10"/></svg>