<svg width="58" height="76" viewBox="0 0 58 76" fill="none" xmlns="http://www.w3.org/2000/svg">
<path d="M12.6392 38.4754C13.185 38.9121 13.4658 39.614 13.3254 40.3002L12.6704 43.7002C12.5144 44.5424 12.9823 45.3534 13.7621 45.6497L15.8832 46.4451L18.0043 47.2405C18.7841 47.5368 19.6731 47.2093 20.1098 46.4763L21.7941 43.5598C22.1529 42.9516 22.8235 42.5928 23.5253 42.624C24.5235 42.6708 25.5372 42.6396 26.5354 42.5305C27.2372 42.4525 27.9079 42.7488 28.3134 43.3259L30.2629 46.1956C30.7464 46.8974 31.6666 47.1469 32.4308 46.8038L34.4895 45.8525L36.5482 44.9011C37.328 44.5424 37.7335 43.6846 37.5152 42.858L36.6418 39.614C36.4546 38.9277 36.6886 38.2103 37.2032 37.7424C37.9519 37.0562 38.6537 36.3232 39.2775 35.5433C39.7142 34.9975 40.4161 34.7323 41.0867 34.8571L44.4867 35.5122C45.3289 35.6681 46.1399 35.2002 46.4362 34.4204L47.2316 32.2993L48.027 30.1782C48.3234 29.3984 47.9958 28.5094 47.2628 28.0727L44.3307 26.4195C43.7069 26.0764 43.3482 25.3902 43.3793 24.6728C43.4261 23.6746 43.3949 22.6764 43.2858 21.6627C43.2078 20.9609 43.5041 20.2902 44.0812 19.8847L46.9509 17.9352C47.6527 17.4517 47.9023 16.5315 47.5591 15.7673L46.6078 13.7086L45.6564 11.6499C45.2977 10.8701 44.4399 10.4646 43.6133 10.6829L40.3693 11.5563C39.683 11.7435 38.95 11.5095 38.4821 10.9793C37.7803 10.1839 37.0161 9.48203 36.2051 8.84258C35.6436 8.40589 35.3629 7.70406 35.5032 7.00223L36.1427 3.64904C36.2987 2.80684 35.8308 1.99584 35.051 1.69951L32.9299 0.904099L30.8088 0.108691C30.029 -0.187637 29.14 0.139884 28.7033 0.872907L26.9877 3.83619C26.629 4.44445 25.9739 4.78756 25.2721 4.75637C24.2584 4.70958 23.2446 4.74077 22.2308 4.86554C21.529 4.94352 20.8428 4.6472 20.4529 4.05454L18.5345 1.23162C18.0667 0.545386 17.1621 0.28025 16.3979 0.592175L14.3391 1.54355L12.3272 2.51051C11.5474 2.86923 11.1419 3.72702 11.3759 4.55362L12.2648 7.84443C12.452 8.51506 12.2337 9.24809 11.7034 9.71597C10.9548 10.4022 10.2529 11.1508 9.62908 11.9462C9.19239 12.4921 8.49056 12.7728 7.80432 12.6325L4.43554 11.993C3.59334 11.8371 2.78234 12.3049 2.48601 13.0848L1.6906 15.2058L0.89519 17.3269C0.598862 18.1068 0.926383 18.9957 1.65941 19.4324L4.62269 21.148C5.23095 21.5067 5.57406 22.1618 5.54287 22.8636C5.49608 23.8774 5.52727 24.8911 5.65204 25.9049C5.73002 26.6067 5.4337 27.2929 4.84104 27.6828L2.03372 29.57C1.33189 30.0535 1.08235 30.9736 1.42546 31.7379L2.37683 33.7966L3.3282 35.8553C3.68692 36.6351 4.54471 37.0406 5.37131 36.8222L8.66212 35.9333C9.34835 35.7461 10.0658 35.98 10.5337 36.4947C11.1887 37.2121 11.8905 37.8828 12.6392 38.4754ZM20.1721 14.66C25.1629 12.2894 31.1363 14.4104 33.5069 19.4012C35.8776 24.392 33.7565 30.3654 28.7657 32.736C23.7749 35.1067 17.8015 32.9856 15.4309 27.9948C13.0603 23.004 15.1813 17.0306 20.1721 14.66Z" fill="#18DE6E"/>
<path d="M56.7297 49.6268L55.4196 49.2057C55.1389 49.1122 54.9517 48.8782 54.9049 48.5975C54.8426 48.192 54.7334 47.7865 54.6086 47.3966C54.515 47.1314 54.5774 46.8195 54.7802 46.6168L55.7627 45.5874C55.9967 45.3379 56.0279 44.948 55.8251 44.6672L55.2636 43.9186L54.7022 43.17C54.4994 42.8893 54.1251 42.8113 53.8132 42.9672L52.5967 43.6067C52.3316 43.7471 52.0196 43.7159 51.7857 43.5443C51.4582 43.3104 51.0995 43.092 50.7251 42.9049C50.4756 42.7801 50.304 42.515 50.2884 42.2342L50.2573 40.815C50.2417 40.4718 49.9921 40.1755 49.649 40.1287L48.7288 39.9884L47.8086 39.848C47.4655 39.8012 47.138 40.004 47.0288 40.3315L46.6077 41.6416C46.5142 41.9223 46.2802 42.125 45.9839 42.1718C45.5628 42.2342 45.1417 42.3434 44.7362 42.4838C44.4555 42.5773 44.1591 42.515 43.9408 42.3122L42.927 41.3452C42.6775 41.1113 42.2876 41.0801 42.0068 41.2828L41.2582 41.8443L40.5096 42.4058C40.2289 42.6085 40.1509 42.9828 40.3069 43.2948L40.9463 44.5425C41.0711 44.792 41.0555 45.1039 40.8839 45.3379C40.65 45.681 40.4316 46.0397 40.2445 46.414C40.1197 46.6791 39.8546 46.8351 39.5738 46.8507L38.1702 46.8819C37.8271 46.8975 37.5307 47.147 37.4683 47.4746L37.328 48.3947L37.1876 49.3149C37.1408 49.658 37.3436 49.9855 37.6711 50.0947L39.0124 50.5158C39.2931 50.6094 39.4803 50.8433 39.527 51.1241C39.5894 51.5452 39.6986 51.9351 39.839 52.3406C39.9325 52.6057 39.8702 52.9176 39.6674 53.1204L38.7004 54.1341C38.4665 54.3837 38.4353 54.7736 38.6381 55.0543L39.1995 55.8029L39.761 56.5516C39.9637 56.8323 40.3381 56.9103 40.65 56.7543L41.8977 56.1149C42.1472 55.9901 42.4591 56.0057 42.6931 56.1773C43.0362 56.4112 43.3949 56.6295 43.7692 56.8167C44.0344 56.9415 44.1903 57.2066 44.2059 57.4873L44.2371 58.891C44.2527 59.2341 44.5022 59.5304 44.8454 59.5772L45.7655 59.7176L46.6857 59.858C47.0288 59.9048 47.3564 59.702 47.4655 59.3745L47.8866 58.0488C47.9802 57.7681 48.2141 57.5809 48.4949 57.5185C48.8848 57.4561 49.2747 57.347 49.649 57.2222C49.9297 57.1286 50.2261 57.191 50.4288 57.3938L51.4582 58.3763C51.7077 58.6103 52.0976 58.6415 52.3783 58.4387L53.127 57.8772L53.8756 57.3158C54.1563 57.113 54.2343 56.7387 54.0783 56.4268L53.4389 55.1947C53.2985 54.9296 53.3297 54.6332 53.5013 54.3837C53.7352 54.0562 53.9536 53.6975 54.1407 53.3231C54.2655 53.0736 54.5306 52.902 54.8114 52.8864L56.2306 52.8553C56.5737 52.8397 56.8701 52.5901 56.9168 52.247L57.0572 51.3268L57.1976 50.4066C57.2756 50.0635 57.0572 49.736 56.7297 49.6268ZM51.2866 50.391C50.9903 52.6369 48.9316 54.2277 46.6857 53.9314C44.4399 53.6351 42.849 51.5764 43.1454 49.3305C43.4417 47.0846 45.5004 45.4938 47.7463 45.7902C49.9921 46.0865 51.5829 48.1452 51.2866 50.391Z" fill="#18DE6E"/>
<path d="M38.8408 59.2497L36.8601 58.9066C36.439 58.8286 36.1115 58.5323 35.9867 58.1268C35.8151 57.5497 35.5812 56.9882 35.316 56.458C35.1289 56.0837 35.1601 55.647 35.4096 55.3038L36.6105 53.6351C36.9069 53.2296 36.8601 52.6681 36.5014 52.3094L35.55 51.358L34.5986 50.4066C34.2399 50.0479 33.6784 50.0011 33.2729 50.2819L31.6353 51.4516C31.2922 51.7011 30.8399 51.7167 30.45 51.5296C29.9197 51.2488 29.3739 51.0149 28.7968 50.8277C28.4069 50.6874 28.1106 50.3598 28.0326 49.9543L27.6895 47.9112C27.6115 47.4122 27.1748 47.0378 26.6757 47.0378H25.3189H23.962C23.4473 47.0378 23.0262 47.3966 22.9326 47.8956L22.5895 49.8608C22.5115 50.2819 22.2152 50.6094 21.7941 50.7342C21.1858 50.9213 20.6088 51.1553 20.0629 51.436C19.6886 51.6231 19.2363 51.6075 18.8932 51.358L17.24 50.1727C16.8345 49.8764 16.273 49.9231 15.9143 50.2819L14.9629 51.2332L14.0116 52.1846C13.6529 52.5433 13.6061 53.1048 13.8868 53.5103L15.0565 55.1791C15.2905 55.5222 15.3217 55.9745 15.1345 56.3332C14.8538 56.8635 14.6198 57.4249 14.4327 58.002C14.3079 58.4075 13.9648 58.6882 13.5593 58.7662L11.5474 59.0937C11.0639 59.1717 10.6896 59.6084 10.6584 60.0919V61.4488V62.8056C10.6584 63.3203 11.0171 63.7414 11.5162 63.835L13.5281 64.1781C13.9336 64.2561 14.2767 64.5524 14.4015 64.9423C14.5886 65.5194 14.807 66.0809 15.0877 66.6267C15.2749 67.001 15.2437 67.4533 15.0097 67.7808L13.8244 69.434C13.5281 69.8395 13.5749 70.401 13.9336 70.7597L14.885 71.7111L15.8363 72.6625C16.1951 73.0212 16.7565 73.068 17.162 72.7872L18.8308 71.6175C19.1739 71.3836 19.6262 71.3524 19.9849 71.5395C20.5152 71.8203 21.0767 72.0542 21.6537 72.2414C22.0592 72.3661 22.34 72.7093 22.418 73.1148L22.7455 75.1267C22.8235 75.6257 23.2601 76.0001 23.7592 76.0001H25.1161H26.473C26.9876 76.0001 27.4088 75.6413 27.5023 75.1423L27.8454 73.146C27.9234 72.7249 28.2198 72.3973 28.6253 72.2726C29.1711 72.101 29.7014 71.8827 30.2161 71.6175C30.5904 71.4304 31.0427 71.4616 31.3702 71.6955L33.039 72.8964C33.4445 73.1927 34.006 73.1459 34.3647 72.7872L35.316 71.8359L36.2674 70.8845C36.6261 70.5258 36.6729 69.9643 36.3922 69.5588L35.2381 67.9212C34.9885 67.5781 34.9729 67.1258 35.1757 66.7515C35.4564 66.2212 35.6904 65.6754 35.8775 65.0983C36.0179 64.7084 36.3454 64.4121 36.7509 64.3341L38.794 63.991C39.2931 63.913 39.6674 63.4763 39.6674 62.9772V61.6203V60.2635C39.7142 59.7644 39.3399 59.3277 38.8408 59.2497ZM25.2565 67.4533C21.9657 67.4845 19.2675 64.8332 19.2363 61.5423C19.2051 58.2515 21.8565 55.5534 25.1473 55.5222C28.4381 55.491 31.1362 58.1424 31.1674 61.4332C31.1986 64.724 28.5473 67.4221 25.2565 67.4533Z" fill="#18DE6E"/>
</svg>
