<svg width="73" height="53" viewBox="0 0 73 53" fill="none" xmlns="http://www.w3.org/2000/svg">
<path d="M69.0356 21.2419C68.9235 21.0966 68.8154 20.9564 68.7123 20.8205C67.4255 19.1249 66.3852 17.2164 65.4675 15.5326C64.5676 13.8816 63.7177 12.3221 62.7897 11.2437C60.7192 8.83774 58.7712 7.66833 56.834 7.66833H47.2684C47.2593 7.6685 46.3455 7.67961 45.2457 7.67961H43.6859C42.571 7.67961 41.5987 8.43656 41.3215 9.52042L41.3086 9.57099V30.6915L41.3109 30.7349C41.3121 30.7477 41.3358 31.0502 41.0972 31.3105C40.8341 31.5979 40.329 31.7498 39.6364 31.7498H2.37811C1.06679 31.7496 0 32.7533 0 33.9868V41.677C0 42.9106 1.06679 43.9142 2.37811 43.9142H10.561C10.9897 48.8128 15.1121 52.669 20.121 52.669C25.1299 52.669 29.2526 48.8128 29.6812 43.9142H43.3762C43.8049 48.8128 47.9274 52.669 52.9362 52.669C57.9451 52.669 62.0678 48.8128 62.4964 43.9142H68.7206C71.0801 43.9142 72.9998 41.9946 72.9998 39.6353V32.2929C73 26.3835 70.6143 23.2892 69.0356 21.2419ZM56.5154 43.0712C56.5154 45.0442 54.9098 46.6492 52.9362 46.6492C50.9633 46.6492 49.3582 45.0442 49.3582 43.0712C49.3582 41.0983 50.9633 39.493 52.9362 39.493C54.9098 39.493 56.5154 41.0981 56.5154 43.0712ZM64.7454 24.4422C64.6706 24.5657 64.4571 24.619 64.1328 24.5982L47.688 24.5974V11.1835H54.7976C56.7105 11.1835 58.0661 12.0162 59.4766 14.0576C60.4145 15.4154 62.8981 19.6903 63.0247 19.9085C63.1129 20.0788 63.2036 20.2518 63.2951 20.4266C64.0116 21.7961 65.0947 23.8652 64.7454 24.4422ZM20.121 39.493C22.0946 39.493 23.7002 41.0983 23.7002 43.0712C23.7002 45.0442 22.0946 46.6492 20.121 46.6492C18.1481 46.6492 16.543 45.0442 16.543 43.0712C16.543 41.0981 18.1481 39.493 20.121 39.493Z" fill="#18DE6E"/>
<path d="M5.01218 28.3475H16.2852C17.4279 28.3475 18.3574 27.418 18.3574 26.2753V17.9863C18.3574 16.8436 17.4279 15.9141 16.2852 15.9141H5.01218C3.86947 15.9141 2.93994 16.8436 2.93994 17.9863V26.2753C2.93994 27.418 3.86963 28.3475 5.01218 28.3475Z" fill="#18DE6E"/>
<path d="M23.7453 28.3475H35.0183C36.161 28.3475 37.0905 27.418 37.0905 26.2753V17.9863C37.0905 16.8436 36.161 15.9141 35.0183 15.9141H23.7453C22.6025 15.9141 21.673 16.8436 21.673 17.9863V26.2753C21.673 27.418 22.6027 28.3475 23.7453 28.3475Z" fill="#18DE6E"/>
<path d="M5.01218 12.7643H16.2852C17.4279 12.7643 18.3574 11.8347 18.3574 10.692V2.40305C18.3574 1.26034 17.4279 0.330811 16.2852 0.330811H5.01218C3.86947 0.330811 2.93994 1.26034 2.93994 2.40305V10.692C2.93994 11.8347 3.86963 12.7643 5.01218 12.7643Z" fill="#18DE6E"/>
<path d="M23.7453 12.7643H35.0183C36.161 12.7643 37.0905 11.8347 37.0905 10.692V2.40305C37.0905 1.26034 36.161 0.330811 35.0183 0.330811H23.7453C22.6025 0.330811 21.673 1.26034 21.673 2.40305V10.692C21.673 11.8347 22.6027 12.7643 23.7453 12.7643Z" fill="#18DE6E"/>
</svg>
