<svg width="68" height="76" viewBox="0 0 68 76" fill="none" xmlns="http://www.w3.org/2000/svg">
<path d="M67.0059 10.6366C66.8694 9.65676 66.1644 8.85073 65.2113 8.5858L34.6656 0.091024C34.2301 -0.0301786 33.7702 -0.0301786 33.3344 0.091024L2.78867 8.5858C1.8356 8.85073 1.13058 9.65643 0.994141 10.6366C0.816973 11.9106 -3.22477 42.0112 7.14203 56.9854C17.4966 71.9417 32.7717 75.7744 33.4168 75.9304C33.6086 75.9768 33.804 75.9996 34 75.9996C34.196 75.9996 34.3914 75.9764 34.5832 75.9304C35.2286 75.7744 50.5037 71.9417 60.858 56.9854C71.2248 42.0116 67.183 11.9109 67.0059 10.6366ZM53.6981 28.2097L32.8628 49.045C32.378 49.5298 31.7422 49.7725 31.1067 49.7725C30.4712 49.7725 29.8354 49.5301 29.3506 49.045L16.4683 36.1627C16.0024 35.6971 15.7408 35.0653 15.7408 34.4066C15.7408 33.7479 16.0027 33.1161 16.4683 32.6505L19.0262 30.0926C19.9961 29.123 21.5688 29.1227 22.5384 30.0926L31.1067 38.6609L47.628 22.1393C48.0936 21.6734 48.7254 21.4118 49.3841 21.4118C50.0428 21.4118 50.6746 21.6734 51.1402 22.1393L53.6981 24.6971C54.668 25.6671 54.668 27.2397 53.6981 28.2097Z" fill="#18DE6E"/>
</svg>
