<svg width="55" height="55" fill="none" xmlns="http://www.w3.org/2000/svg"><path d="M41.028 5.821h-3.283V2.973A2.976 2.976 0 0034.772 0H20.228a2.976 2.976 0 00-2.973 2.973V5.82h-3.283c-2.459 0-4.46 2-4.46 4.46v40.26A4.466 4.466 0 0013.973 55h27.056c2.459 0 4.46-2 4.46-4.46V10.28a4.465 4.465 0 00-4.46-4.459zM23.443 48.46l2.66-12.637a.353.353 0 00-.071-.294.36.36 0 00-.271-.127h-4.702l10.45-15.842-2.648 11.912a.344.344 0 00.069.292.347.347 0 00.274.134h4.719L23.443 48.46zm17.585-34.372H13.972V10.28h27.056v3.808z" fill="#fff"/></svg>