<svg width="60" height="44" fill="none" xmlns="http://www.w3.org/2000/svg"><path d="M16.83 26.39h-5.2c-.62 0-1.117.496-1.117 1.116v13.828c0 .62.496 1.116 1.117 1.116h5.2c.621 0 1.118-.496 1.118-1.117V27.506a1.104 1.104 0 00-1.117-1.117zm10.514-6.22h-5.2c-.621 0-1.118.497-1.118 1.118V41.32c0 .62.497 1.117 1.117 1.117h5.2c.621 0 1.118-.497 1.118-1.117V21.288c0-.62-.497-1.117-1.117-1.117z" fill="#18DE6E"/><path d="M38.974 23.485v-9.26h3.6a.849.849 0 00.72-1.29L35.97 1.18a.847.847 0 00-1.44 0l-7.323 11.755a.845.845 0 00.72 1.29h3.6v27.108c0 .621.496 1.117 1.117 1.117h5.2c.621 0 1.117-.496 1.117-1.117-2.085-2.395-3.363-5.51-3.363-8.936a13.66 13.66 0 013.376-8.912z" fill="#18DE6E"/><path d="M49.202 21.623c-5.958 0-10.799 4.828-10.799 10.799 0 5.957 4.828 10.798 10.799 10.798C55.159 43.22 60 38.392 60 32.422a10.79 10.79 0 00-10.798-10.799zm3.102 15.043a3.49 3.49 0 01-1.8 1.155c-.31.087-.446.248-.434.57.013.324 0 .634 0 .956 0 .286-.149.435-.422.447a14.27 14.27 0 01-1.03 0c-.298 0-.447-.173-.447-.471 0-.236 0-.472-.012-.695 0-.51-.025-.534-.521-.609-.633-.099-1.254-.248-1.837-.52-.46-.224-.497-.336-.373-.808.1-.36.199-.707.31-1.055.125-.41.236-.459.609-.26a5.852 5.852 0 002.035.608c.46.062.906.012 1.328-.174.795-.348.919-1.266.249-1.825a3.292 3.292 0 00-.758-.446c-.695-.31-1.427-.534-2.072-.931-1.068-.633-1.738-1.514-1.664-2.818.087-1.464.919-2.383 2.26-2.867.558-.199.558-.199.558-.77v-.583c.012-.434.087-.509.521-.521h.41c.93 0 .93 0 .93.93 0 .659 0 .659.659.758.496.074.98.223 1.44.434.26.112.347.286.273.559-.112.397-.224.807-.348 1.204-.124.372-.236.434-.596.26a4.517 4.517 0 00-2.284-.446c-.21.012-.41.037-.608.124-.695.298-.807 1.067-.21 1.539.297.236.632.41.992.558.608.249 1.229.497 1.812.82 1.837.968 2.334 3.301 1.03 4.877zM6.318 33.898h-5.2c-.622 0-1.118.497-1.118 1.117v6.319c0 .62.496 1.117 1.117 1.117h5.2c.621 0 1.118-.496 1.118-1.117v-6.318a1.105 1.105 0 00-1.117-1.118z" fill="#18DE6E"/></svg>