<svg width="22" height="28" fill="none" xmlns="http://www.w3.org/2000/svg"><path d="M18.583 8.167h1.167c.965 0 1.75-.785 1.75-1.75V1.75C21.5.785 20.715 0 19.75 0h-1.167c-.965 0-1.75.785-1.75 1.75v1.217l-4.248.386A1.749 1.749 0 0011 2.333c-.704 0-1.308.42-1.585 1.02l-4.248-.386V1.75C5.167.785 4.382 0 3.417 0H2.25C1.285 0 .5.785.5 1.75v4.667c0 .965.785 1.75 1.75 1.75h1.167c.965 0 1.75-.785 1.75-1.75V5.2l4.248-.387c.101.22.248.412.426.572l.425 6.312a.575.575 0 00-.433.553v3.5c0 .26.172.471.405.547l-.396 5.151a1.74 1.74 0 00-.592 1.302v.422L5.167 22.8v-1.217c0-.965-.785-1.75-1.75-1.75H2.25c-.965 0-1.75.785-1.75 1.75v4.667c0 .965.785 1.75 1.75 1.75h1.167c.965 0 1.75-.785 1.75-1.75v-1.217l4.083-.372v.422c0 .965.785 1.75 1.75 1.75s1.75-.785 1.75-1.75v-.421l4.083.37v1.218c0 .965.785 1.75 1.75 1.75h1.167c.965 0 1.75-.785 1.75-1.75v-4.667c0-.965-.785-1.75-1.75-1.75h-1.167c-.965 0-1.75.785-1.75 1.75v1.218l-4.083.37v-.421c0-.52-.232-.981-.592-1.302l-.4-5.15a.576.576 0 00.409-.548v-3.5a.575.575 0 00-.429-.552l.421-6.313c.178-.16.325-.352.426-.571l4.248.386v1.217c0 .965.785 1.75 1.75 1.75z" fill="#0F0F10"/></svg>