<svg width="73" height="53" fill="none" xmlns="http://www.w3.org/2000/svg"><path d="M69.036 21.242l-.324-.422c-1.287-1.695-2.327-3.604-3.245-5.287-.9-1.651-1.75-3.21-2.677-4.29-2.07-2.405-4.019-3.575-5.956-3.575h-9.566c-.009 0-.922.012-2.022.012h-1.56a2.442 2.442 0 00-2.364 1.84l-.013.051v21.12l.002.044a.806.806 0 01-.214.576c-.263.287-.768.439-1.46.439H2.377C1.067 31.75 0 32.753 0 33.987v7.69c0 1.234 1.067 2.237 2.378 2.237h8.183c.429 4.899 4.551 8.755 9.56 8.755s9.132-3.856 9.56-8.755h13.695c.429 4.899 4.551 8.755 9.56 8.755 5.01 0 9.132-3.856 9.56-8.755h6.225c2.36 0 4.279-1.92 4.279-4.279v-7.342c0-5.91-2.386-9.004-3.964-11.051zm-12.52 21.83a3.583 3.583 0 01-3.58 3.577 3.582 3.582 0 01-3.578-3.578 3.582 3.582 0 013.578-3.578 3.583 3.583 0 013.58 3.578zm8.23-18.63c-.075.124-.289.177-.613.156H47.688V11.183h7.11c1.913 0 3.268.832 4.679 2.874.938 1.357 3.421 5.632 3.548 5.85l.27.519c.717 1.37 1.8 3.438 1.45 4.015zM20.12 39.493a3.583 3.583 0 013.58 3.578 3.583 3.583 0 01-3.58 3.578 3.582 3.582 0 01-3.578-3.578 3.582 3.582 0 013.578-3.578z" fill="#18DE6E"/><path d="M5.012 28.348h11.273c1.143 0 2.072-.93 2.072-2.073v-8.289c0-1.142-.93-2.072-2.072-2.072H5.012c-1.143 0-2.072.93-2.072 2.072v8.29c0 1.142.93 2.072 2.072 2.072zm18.733 0h11.273c1.143 0 2.072-.93 2.072-2.073v-8.289a2.074 2.074 0 00-2.072-2.072H23.745c-1.143 0-2.072.93-2.072 2.072v8.29c0 1.142.93 2.072 2.072 2.072zM5.012 12.764h11.273c1.143 0 2.072-.93 2.072-2.072V2.403c0-1.143-.93-2.072-2.072-2.072H5.012A2.074 2.074 0 002.94 2.403v8.289c0 1.143.93 2.072 2.072 2.072zm18.733 0h11.273c1.143 0 2.072-.93 2.072-2.072V2.403A2.074 2.074 0 0035.018.331H23.745c-1.143 0-2.072.93-2.072 2.072v8.289c0 1.143.93 2.072 2.072 2.072z" fill="#18DE6E"/></svg>