<svg width="55" height="55" fill="none" xmlns="http://www.w3.org/2000/svg"><path d="M14.61 19.336c-4.443 0-8.165 3.614-8.165 8.057 0 4.442 3.722 8.056 8.164 8.056 4.443 0 8.164-3.614 8.164-8.056 0-4.443-3.721-8.057-8.164-8.057zM40.498 0c-7.997 0-14.502 6.505-14.502 14.502 0 2.494.637 4.928 1.847 7.087l-1.764 5.294a1.61 1.61 0 001.919 2.072l5.984-1.495a14.523 14.523 0 006.516 1.544C48.495 29.004 55 22.499 55 14.502 55 6.505 48.495 0 40.498 0zm1.611 20.947a1.61 1.61 0 11-3.222 0v-6.445a1.61 1.61 0 113.222 0v6.445zm-1.611-9.668a1.611 1.611 0 110-3.222 1.611 1.611 0 010 3.222z" fill="#fff"/><path d="M23.065 34.909a11.445 11.445 0 01-8.456 3.763c-3.321 0-6.389-1.47-8.455-3.763C2.444 37.538 0 41.845 0 46.729v6.66C0 54.279.72 55 1.611 55h25.996a1.61 1.61 0 001.612-1.611v-6.66c0-4.884-2.444-9.191-6.154-11.82z" fill="#fff"/></svg>