<svg width="68" height="76" fill="none" xmlns="http://www.w3.org/2000/svg"><path d="M67.006 10.637a2.484 2.484 0 00-1.795-2.051L34.666.09a2.482 2.482 0 00-1.332 0L2.79 8.586a2.484 2.484 0 00-1.795 2.05c-.177 1.275-4.219 31.375 6.148 46.35 10.355 14.956 25.63 18.788 26.275 18.944a2.477 2.477 0 001.166 0c.646-.156 15.92-3.988 26.275-18.945 10.367-14.973 6.325-45.074 6.148-46.348zM53.698 28.21L32.863 49.045a2.476 2.476 0 01-1.756.727 2.475 2.475 0 01-1.756-.727L16.468 36.163a2.483 2.483 0 010-3.512l2.558-2.558c.97-.97 2.543-.97 3.512 0l8.569 8.568 16.521-16.522a2.483 2.483 0 013.512 0l2.558 2.558c.97.97.97 2.543 0 3.513z" fill="#18DE6E"/></svg>