<svg width="29" height="32" fill="none" xmlns="http://www.w3.org/2000/svg"><path d="M22.484.758a42.444 42.444 0 00-15.97 0C4.198 1.275 1.282 4.077.712 6.33a30.704 30.704 0 000 13.14c.57 2.253 3.486 5.054 5.804 5.572h.001a.22.22 0 01.179.216v6.387c0 .319.389.476.61.245l3.026-3.114 2.844-2.927a.216.216 0 01.162-.066 42.493 42.493 0 009.147-.741c2.318-.518 5.235-3.319 5.804-5.572.95-4.36.95-8.78 0-13.14-.569-2.253-3.485-5.055-5.804-5.572zm.081 19.037c-.463.987-1.138 1.807-2.11 2.331-.275.148-.603.196-.913.292-.357-.109-.696-.181-1.011-.313-3.268-1.359-6.275-3.113-8.658-5.8-1.354-1.53-2.415-3.255-3.31-5.081-.426-.867-.784-1.767-1.15-2.66-.332-.816.158-1.659.675-2.273.484-.576 1.107-1.018 1.783-1.343.527-.254 1.046-.107 1.431.34.832.969 1.597 1.986 2.216 3.109.38.69.276 1.534-.414 2.004-.168.114-.32.248-.477.377a1.564 1.564 0 00-.36.38c-.17.28-.18.61-.069.915.85 2.343 2.284 4.165 4.637 5.147.377.157.755.34 1.188.289.727-.085.962-.884 1.47-1.301.498-.408 1.134-.413 1.67-.073.536.34 1.055.705 1.572 1.074.507.362 1.012.716 1.48 1.13.448.396.603.917.35 1.456zm-4.219-7.637a.771.771 0 01-.046-.002c-.327-.012-.505-.205-.54-.518-.025-.23-.046-.462-.1-.685-.108-.439-.34-.846-.709-1.115a1.846 1.846 0 00-.577-.28c-.263-.075-.535-.055-.797-.119-.284-.07-.441-.3-.397-.568a.514.514 0 01.542-.414c1.657.12 2.842.98 3.01 2.935.013.138.027.284-.004.416a.426.426 0 01-.382.35zm-1.03-4.473a5.82 5.82 0 00-1.616-.497c-.244-.04-.49-.065-.735-.1-.296-.04-.455-.23-.44-.523a.46.46 0 01.511-.456c.981.056 1.929.269 2.8.732 1.774.941 2.787 2.428 3.083 4.412.013.09.034.179.041.27.017.222.027.445.045.739-.007.053-.011.18-.042.298-.114.43-.764.484-.914.05a1.299 1.299 0 01-.051-.415c-.002-.907-.199-1.814-.655-2.604a4.84 4.84 0 00-2.027-1.906zm5.48 6.133c-.343.004-.498-.283-.52-.591-.044-.61-.074-1.223-.158-1.827-.443-3.193-2.982-5.834-6.15-6.4-.478-.086-.966-.108-1.449-.159-.305-.032-.705-.05-.773-.431-.057-.32.212-.573.515-.59.083-.004.165 0 .248 0 4.105.115.25.009.011 0 4.27.125 7.775 2.968 8.526 7.2.128.723.174 1.46.231 2.193.024.308-.15.601-.482.605z" fill="#fff"/></svg>